<?xml version="1.0" encoding="utf-8"?>
<!-- Generator: Adobe Illustrator 27.9.0, SVG Export Plug-In . SVG Version: 6.00 Build 0)  -->
<svg version="1.1" id="uuid-338e783f-bc3e-419b-9de5-cef4bfdbbce4"
	 xmlns="http://www.w3.org/2000/svg" xmlns:xlink="http://www.w3.org/1999/xlink" x="0px" y="0px" viewBox="0 0 48.8 82.2"
	 style="enable-background:new 0 0 48.8 82.2;" xml:space="preserve">
<style type="text/css">
	.st0{fill:#FE8D27;}
	.st1{fill:#469B45;}
</style>
<path class="st0" d="M25.7,24.5c0,0,16.8-0.9,20.6,11.7c2.1,8.5-2.2,34.7-20.6,45.8l-0.1,0.1C7.1,71,3,44.7,5.1,36.2
	C8.9,23.6,25.7,24.5,25.7,24.5L25.7,24.5L25.7,24.5z"/>
<g id="uuid-94a826bf-de35-4a55-a024-be9a26313127">
	<path class="st1" d="M15.5,26.3l-3.4-4.1c-0.9-1.1-1.4-2.5-1.4-4l0,0c0-0.9,0.4-1.8,1.1-2.3c1.1-0.8,2.8-1.3,4.8,1
		c0.1,0.1-0.1-1.7-0.2-3.5c-0.1-2.1,0.9-4.1,2.8-5c1.7-0.8,4-0.8,6.1,2.9c0,0.1,10.9-6.7,7.7,5.8c0.2,0,8.1-2.7,6.5,3
		c-0.3,1.1-0.9,2.1-1.6,2.9c-1.1,1.2-2.6,2.8-2.6,2.8L15.5,26.3L15.5,26.3z"/>
</g>
</svg>
