<svg width="187" height="200" viewBox="0 0 187 200" fill="none" xmlns="http://www.w3.org/2000/svg">
<g clip-path="url(#clip0_203_2)">
<path d="M116.97 153.87C132 122.09 126.85 92.57 111.36 83.22C99.08 75.8 82.91 82.65 80.52 83.67C58.61 92.95 48.22 119.45 49.57 141.31C51.05 165.37 67.1 189.44 92.19 197.38C124.45 207.59 150.96 184.61 155.89 180.33C160.93 175.96 170.54 167.4 174.96 152.52C178.93 139.12 176.62 127.58 175.18 122.24C174.55 118.47 173.08 112.52 169.29 106.15C165.78 100.26 161.67 96.32 158.8 93.98C155.68 90.73 148.79 84.47 138.16 81.87C133.61 80.75 123.85 78.36 120.89 82.43C116.93 87.87 130.48 97.46 131.36 116.97C131.74 125.3 129.65 132.06 128.63 135.26C125.08 146.42 118.1 156.42 116.97 155.9C116.79 155.82 116.65 155.42 116.97 153.88V153.87Z" fill="#F2B445"/>
<path d="M100.04 34.54C100.79 35.56 101.85 37.15 102.8 39.24C103.67 41.13 106.09 47 105.21 54.16C104.88 56.82 104.33 57.8 103.79 62.47C103.56 64.49 103.45 66.17 103.4 67.3C106.04 67.07 109.26 66.56 112.81 65.45C115.12 64.73 117.15 63.88 118.88 63.04C120.82 59.83 122.77 56.61 124.71 53.4C126.32 50.87 128.72 47.64 132.17 44.43C135.57 41.26 138.92 39.12 141.53 37.7C146.74 35.52 152.67 33.39 159.28 31.56C169.27 28.79 178.4 27.39 186.17 26.71C186.16 30.14 185.67 38.36 180.31 46.78C175.58 54.21 169.45 58.05 166.43 59.68C159.12 62.72 152.95 63.88 148.6 64.36C136.66 65.69 132.36 62.66 123.53 66.29C120.66 67.47 118.17 69.01 113.18 70.24C108.98 71.28 105.37 71.52 102.95 71.56C102.65 72.5 102.33 73.87 102.33 75.54C102.33 77.59 102.82 79.22 103.21 80.24C102.47 80.12 101.69 80.02 100.85 79.95C99.96 79.87 99.11 79.83 98.32 79.81C98.26 76.29 98.29 72.58 98.47 68.69C98.61 65.58 98.83 62.59 99.1 59.73C99.1 59.73 98.15 57.14 95.33 55.19C88.55 50.49 77.21 58.84 62.58 60.35C49.53 61.7 47.75 55.67 28.49 53.62C16.34 52.33 6.29 53.59 0 54.74C0.72 52.95 1.96 50.33 4.04 47.56C17.61 29.44 49.76 28.1 72.23 36.35C78.66 38.71 89.87 43.9 100.87 55.7C101.23 53.12 101.5 48.45 99.57 43.21C98.6 40.6 97.34 38.54 96.23 37.03C97.5 36.21 98.77 35.39 100.04 34.56V34.54Z" fill="#2A67B0"/>
<path d="M57.42 2.07517e-05C57.55 3.33002 58.3 10.23 63.03 16.82C72.33 29.79 88.63 29.85 90.39 29.83C89.65 28.32 88.53 25.98 87.25 23.1C84.76 17.51 83.4 13.77 82.99 12.78C81.27 8.68002 75.54 3.64002 57.42 -0.00997925V2.07517e-05Z" fill="#2A67B0"/>
</g>
<defs>
<clipPath id="clip0_203_2">
<rect width="186.17" height="199.97" fill="white"/>
</clipPath>
</defs>
</svg>
