<svg width="169" height="157" viewBox="0 0 169 157" fill="none" xmlns="http://www.w3.org/2000/svg">
<g filter="url(#filter0_f_208_178)">
<path d="M103.167 43.2059C97.3834 46.8272 90.4964 50.525 82.501 53.7734C78.9164 55.2287 75.4497 56.4512 72.1524 57.4834C62.4947 61.7646 55.9868 67.0662 51.9979 70.8981C42.3179 80.2033 37.2562 90.6809 34.0552 97.3099C29.788 106.155 31.1135 106.344 27.5585 112.103C20.635 123.299 13.2281 126.43 14.3816 131.453C15.3329 135.605 21.3104 137.525 23.9055 138.357C25.8956 138.995 30.61 140.236 42.2571 137.254C47.1625 135.999 54.0097 133.832 61.8363 129.953C73.6918 123.906 80.9085 116.974 85.2696 111.861C91.1784 104.928 95.6088 96.9001 107.471 79.9235C110.703 75.2937 112.412 73.0807 115.219 70.5263C117.547 68.4085 119.587 67.0486 124.019 62.9058C125.638 61.3949 126.448 60.6279 126.774 60.1569C127.849 58.572 129.791 54.3555 125.455 44.8028C124.478 45.3944 122.944 46.1639 120.946 46.507C118.664 46.8998 116.867 46.545 114.88 46.1375C111.654 45.4737 110.872 44.7052 107.314 43.893C105.541 43.4893 104.075 43.2984 103.171 43.2023L103.167 43.2059Z" fill="#854594"/>
<path d="M155.905 25.6033C154.571 25.6321 153.058 25.788 151.434 26.1775C145.647 27.5564 141.815 31.0493 139.933 33.0785C140.212 34.5583 140.457 36.8959 139.939 39.6692C139.54 41.8088 138.819 43.5009 138.201 44.675C136.636 47.3381 135.093 49.306 133.955 50.6334C131.814 53.1266 130.172 54.4101 128.744 57.2231C127.982 58.7255 127.582 60.067 127.36 60.9853C126.372 59.5091 124.542 56.3296 124.278 51.9236C124.105 49.0734 124.654 46.7461 125.142 45.2552C122.328 47.6923 119.938 48.2875 118.288 48.3948C114.932 48.6131 113.212 46.8702 108.818 46.2082C105.779 45.7525 103.203 46.0734 101.536 46.4053C101.902 45.871 102.295 45.218 102.657 44.4538C103.033 43.6711 103.295 42.9426 103.489 42.3103C103.873 40.917 104.545 38.8749 105.756 36.599C107.061 34.1392 110.609 27.4571 118.194 24.7671C122.64 23.1907 126.509 23.6827 127.622 23.8521C130.575 24.3017 132.823 25.3546 134.204 26.135C136.523 26.0952 139.577 25.7891 142.99 24.7146C144.958 24.093 146.65 23.3465 148.054 22.6103C150.668 23.6078 153.279 24.6011 155.894 25.5986L155.905 25.6033Z" fill="#579539"/>
</g>
<defs>
<filter id="filter0_f_208_178" x="12.2621" y="20.6104" width="145.643" height="120.553" filterUnits="userSpaceOnUse" color-interpolation-filters="sRGB">
<feFlood flood-opacity="0" result="BackgroundImageFix"/>
<feBlend mode="normal" in="SourceGraphic" in2="BackgroundImageFix" result="shape"/>
<feGaussianBlur stdDeviation="1" result="effect1_foregroundBlur_208_178"/>
</filter>
</defs>
</svg>
