<svg width="105" height="143" viewBox="0 0 105 143" fill="none" xmlns="http://www.w3.org/2000/svg">
<g filter="url(#filter0_f_208_175)">
<path d="M45.0002 40.7679C47.0756 38.8263 52.175 34.0492 53.1594 26.2547C53.6955 22.0165 52.8076 18.5105 52.1051 16.4526C50.0949 17.0636 45.3644 18.8194 41.9291 23.4974C40.5472 25.3785 39.7405 27.2325 39.2564 28.714C39.7569 27.183 41.1094 22.3911 39.1549 16.8192C36.8953 10.3733 31.7916 7.38871 30.5238 6.69572C29.8558 7.29089 23.0034 13.5771 23.7446 21.2978C23.7446 21.2978 24.282 26.8932 28.8531 32.7752L28.8712 32.7961C28.8712 32.7961 28.8666 32.7872 28.8531 32.7752C27.6851 31.3943 23.9176 27.3017 17.4777 25.8865C12.0031 24.6827 7.56665 26.0617 5.7858 26.726C7.83192 38.6541 16.1135 47.5322 25.6074 48.711C35.2392 49.9103 42.8517 42.78 45.0032 40.7664L45.0002 40.7679Z" fill="#5E7F38"/>
<path d="M46.2081 59.738C48.3824 59.3708 50.5596 59.032 52.7278 58.6302C54.5874 58.2864 56.441 57.893 58.287 57.4773C59.1927 57.2724 59.767 57.4221 60.032 58.4326C61.0256 62.208 62.0521 65.9743 63.0981 69.7345C63.3963 70.8108 62.9423 71.332 62.0344 71.8305C58.9606 73.5172 55.929 75.2801 52.8883 77.0326C52.4501 77.2871 52.0706 77.6357 51.661 77.9395C51.7348 78.0861 51.8071 78.2297 51.8809 78.3763C52.4707 78.1919 53.0815 78.0493 53.6501 77.8155C56.5381 76.6387 59.4623 75.5412 62.2779 74.2058C63.9161 73.4296 64.719 73.9067 65.3749 75.3879C67.6819 80.5873 70.0413 85.764 72.3333 90.9709C73.1416 92.8067 73.8062 94.7074 74.5471 96.5735C74.9862 97.6763 74.8969 98.4002 73.5588 98.834C71.8047 99.4023 70.1291 100.216 68.4188 100.924C68.4643 101.126 68.5098 101.328 68.5554 101.53C69.8134 101.384 71.088 101.308 72.3308 101.08C75.8121 100.441 75.8614 100.397 76.939 103.669C79.8632 112.53 81.2766 121.66 81.6388 130.959C81.7083 132.728 81.3 132.96 79.659 132.256C69.9813 128.12 62.516 121.265 56.5083 112.806C53.9272 109.17 50.783 106.167 47.6924 103.038C36.1219 91.3158 26.4757 78.3203 21.4772 62.3467C21.1295 61.2316 21.075 60.0063 20.6196 58.9454C18.8866 54.8935 20.9299 52.2405 23.655 49.6154C24.6067 48.6974 25.3884 48.0674 25.6126 47.902C31.8612 43.18 41.4079 41.3429 42.465 41.1482C47.4676 40.223 49.0034 40.8223 49.8996 40.9261C52.3843 41.2201 54.1753 43.0712 55.347 45.1966C56.5547 47.3864 57.3646 49.7916 58.4093 52.0747C58.9098 53.1654 58.5695 53.6068 57.5071 54.0368C54.1552 55.3947 50.8516 56.8708 47.5389 58.3215C47.0048 58.5568 46.5218 58.9012 46.0133 59.1948C46.0783 59.3759 46.1462 59.5555 46.2111 59.7365L46.2081 59.738Z" fill="#F07F25"/>
</g>
<defs>
<filter id="filter0_f_208_175" x="3.78577" y="4.69571" width="79.8604" height="129.93" filterUnits="userSpaceOnUse" color-interpolation-filters="sRGB">
<feFlood flood-opacity="0" result="BackgroundImageFix"/>
<feBlend mode="normal" in="SourceGraphic" in2="BackgroundImageFix" result="shape"/>
<feGaussianBlur stdDeviation="1" result="effect1_foregroundBlur_208_175"/>
</filter>
</defs>
</svg>
