<svg width="144" height="141" viewBox="0 0 144 141" fill="none" xmlns="http://www.w3.org/2000/svg">
<g filter="url(#filter0_f_208_154)">
<path d="M59.4734 20.0953C55.979 21.1065 22.3284 31.4203 17.0975 62.5343C12.8257 87.9711 31.0717 106.345 32.1076 107.349C49.5439 124.317 76.8895 125.906 96.8818 114.806C98.2494 114.046 125.403 98.3566 125.34 67.8872C125.312 50.2049 116.128 31.5044 99.0709 22.5224C82.0596 13.5698 65.1377 18.4578 59.4734 20.0953Z" fill="#A4CA62"/>
<path d="M64.3777 65.2026C63.7538 63.1225 62.4489 59.7279 59.6046 56.3676C55.9862 52.0918 51.8009 50.1319 49.666 49.2973C42.7353 47.2824 36.5565 49.6209 34.8431 53.5836C33.1423 57.5297 36.218 62.2815 38.5093 64.5236C43.9622 69.8655 54.1827 70.0149 64.3777 65.2026Z" fill="#025629"/>
<path d="M78.6977 31.1107C74.4304 29.8871 69.7272 33.5314 67.6636 36.6599C63.5323 42.9085 65.7946 53.3173 73.5069 62.5995C74.5835 61.7972 87.1654 52.0972 85.1446 40.6032C84.9413 39.4367 83.5758 32.5205 78.7019 31.1191L78.6977 31.1107Z" fill="#025629"/>
<path d="M81.8888 66.8358C84.1553 64.9571 86.4302 63.0742 88.6967 61.1954C90.8666 59.5409 94.67 57.2034 99.8225 56.629C102.89 56.2859 107.78 55.7477 111.057 58.9978C113.046 60.9637 113.585 63.4805 113.763 64.8258C113.383 66.0519 112.366 68.7151 109.789 71.0377C106.871 73.6751 103.682 74.3173 102.425 74.5027C101.363 74.8305 99.8261 75.1644 97.9667 75.1387C95.4667 75.0975 93.5101 74.4137 92.3516 73.8961L81.8804 66.84L81.8888 66.8358Z" fill="#025629"/>
<path d="M62.6796 74.5889C63.0513 77.3129 64.3231 88.8449 56.8545 96.3386C55.6348 97.5648 50.2089 103 45.2866 101.186C42.2419 100.064 40.5048 96.5716 40.2043 93.7397C39.6079 87.9801 44.8341 83.5682 47.7437 81.1015C53.1203 76.553 59.0666 75.1084 62.6796 74.5889Z" fill="#025629"/>
<path d="M72.6092 77.7173C70.9802 84.4734 71.5407 89.8456 72.127 92.9828C72.9494 97.3948 73.7354 101.544 77.3271 104.213C80.164 106.321 85.1334 107.768 88.3754 105.387C91.1251 103.373 91.2861 99.5857 91.3411 98.3331C91.5662 93.102 88.3621 89.2445 86.346 86.8247C81.7964 81.3581 76.1156 78.8706 72.5926 77.7255L72.6092 77.7173Z" fill="#025629"/>
</g>
<defs>
<filter id="filter0_f_208_154" x="14.4507" y="15.2869" width="112.889" height="108.591" filterUnits="userSpaceOnUse" color-interpolation-filters="sRGB">
<feFlood flood-opacity="0" result="BackgroundImageFix"/>
<feBlend mode="normal" in="SourceGraphic" in2="BackgroundImageFix" result="shape"/>
<feGaussianBlur stdDeviation="1" result="effect1_foregroundBlur_208_154"/>
</filter>
</defs>
</svg>
