<svg width="133" height="216" viewBox="0 0 133 216" fill="none" xmlns="http://www.w3.org/2000/svg">
<g clip-path="url(#clip0_205_11)">
<path d="M34.67 76.37C29.51 81.02 21.94 88.96 15.94 100.71C13.11 106.25 8.71 115.08 7.64 127.29C5.79 148.41 15.25 164.29 18.63 169.79C24.97 180.11 32.57 186.87 37.92 190.87C40.81 193.41 45.21 197.53 50.03 203.21C54.55 208.53 55.27 210.32 58.33 212.29C64.98 216.58 72.82 215.4 77.84 214.65C81.3 214.13 92.14 212.5 99.48 203.88C102.12 200.79 103.14 198.16 104.75 194.46C111.97 177.88 114.06 178.77 121.91 161.71C128.38 147.66 131.61 140.64 132.34 134.12C134.31 116.42 126.26 102.28 123.82 98.12C110.15 74.85 85.84 68.51 80.64 67.28C75.03 66.17 64.98 64.99 53.16 68.07C44.99 70.2 38.76 73.64 34.66 76.37H34.67Z" fill="#D13D56"/>
<path d="M15.04 43.96C7.61999 37.2 -0.330014 36.55 0.0099864 34.76C0.339986 33.04 7.92999 32.38 14.48 33.64C19.07 34.52 30.67 37.81 41.51 53.83C40.57 51.2 39.74 48.12 39.27 44.63C37.68 32.9 41.07 23.25 43.42 18.05C44.52 15.54 46.39 12.11 49.59 8.85C56.94 1.37 67.15 -0.95 67.86 0.33C68.44 1.37 62.27 3.9 58.66 11.21C56.57 15.45 56.15 19.63 56.19 22.76C55.95 24.61 55.79 27.89 57.09 31.62C59.17 37.6 57.12 49.52 58.66 50.5C57.85 48.7 63.24 36.73 63.48 32.74C63.96 24.7 69.55 19.75 70.77 18.72C70.51 22.98 70.54 28.2 71.33 34.08C72.03 39.29 77.31 44.81 78.5 48.54C80.91 48.79 80.58 47.8 83.89 45.63C90.78 41.11 90.23 30.53 91.85 30.6C93.34 30.67 96.01 39.68 93.31 48.54C90.02 59.34 80.33 64.84 76.77 66.63C71.26 65.89 61.97 65.4 51.24 68.58C43.95 70.74 38.32 73.91 34.46 76.52C33.27 74.36 30.68 69.69 27.36 63.67C19.22 48.89 18.1 46.74 15.02 43.93L15.04 43.96Z" fill="#5E7F38"/>
<path d="M35.23 92.86C34.71 92.92 34.28 95.85 35.15 98.47C35.74 100.25 37.04 102.23 37.48 102.06C38.35 101.71 36.17 92.76 35.24 92.86H35.23Z" fill="#F2B445"/>
<path d="M60.8 92.08C60.49 92.63 58.49 96.4 60.21 99.9C60.3 100.08 61.16 101.81 61.64 101.67C62.38 101.45 61.71 96.9 60.8 92.08Z" fill="#F2B445"/>
<path d="M82.6 147.54C82.08 147.6 81.65 150.53 82.52 153.15C83.11 154.93 84.41 156.91 84.85 156.74C85.72 156.39 83.54 147.44 82.61 147.54H82.6Z" fill="#F2B445"/>
<path d="M35.76 112.82C35.24 112.88 34.81 115.81 35.68 118.43C36.27 120.21 37.57 122.19 38.01 122.02C38.88 121.67 36.7 112.72 35.77 112.82H35.76Z" fill="#F2B445"/>
<path d="M108.17 146.75C107.86 147.3 105.86 151.07 107.58 154.57C107.67 154.75 108.53 156.48 109.01 156.34C109.75 156.12 109.08 151.57 108.17 146.75Z" fill="#F2B445"/>
<path d="M42.63 132.45C42.2 132.45 41.52 136.72 42.88 140.86C43.11 141.55 43.45 142.58 43.64 142.54C44.22 142.43 43.28 132.43 42.63 132.45Z" fill="#F2B445"/>
<path d="M18.15 124.8C17.57 125.91 16.64 128.07 16.72 130.86C16.76 132.22 17.03 133.36 17.31 134.22C17.59 131.08 17.87 127.94 18.15 124.8Z" fill="#F2B445"/>
<path d="M125.23 114.96C125.5 114.88 126.79 117.55 127.25 120.51C127.5 122.13 127.45 123.53 127.33 124.55C125.3 116.95 125.01 115.03 125.23 114.96Z" fill="#F2B445"/>
<path d="M96.46 139.43C96.26 139.81 95.03 142.2 96.12 144.48C96.17 144.58 96.74 145.75 97.05 145.66C97.5 145.53 97.1 142.72 96.46 139.44V139.43Z" fill="#F2B445"/>
<path d="M110.11 128.49C109.91 128.87 108.68 131.26 109.77 133.54C109.82 133.64 110.39 134.81 110.7 134.72C111.15 134.59 110.75 131.78 110.11 128.5V128.49Z" fill="#F2B445"/>
<path d="M75.09 120.76C74.61 120.76 73.72 122.87 74.67 124.46C75.23 125.39 76.16 125.72 76.44 125.81C75.85 121.62 75.4 120.76 75.09 120.76Z" fill="#F2B445"/>
<path d="M100.84 160.71C101.11 160.63 102.4 163.3 102.86 166.26C103.11 167.88 103.06 169.28 102.94 170.3C100.91 162.7 100.62 160.78 100.84 160.71Z" fill="#F2B445"/>
<path d="M50.71 166.52C50.23 166.52 49.34 168.63 50.29 170.22C50.85 171.15 51.78 171.48 52.06 171.57C51.47 167.38 51.02 166.52 50.71 166.52Z" fill="#F2B445"/>
<path d="M53.14 129.26C52.67 129.3 51.9 132.04 53.31 133.72C53.82 134.33 54.45 134.6 54.82 134.73C53.92 130.18 53.42 129.24 53.14 129.26Z" fill="#F2B445"/>
<path d="M95.52 109.66C95.09 109.66 94.41 113.93 95.77 118.07C96 118.76 96.34 119.79 96.53 119.75C97.11 119.64 96.17 109.64 95.52 109.66Z" fill="#F2B445"/>
<path d="M106.03 106.46C105.56 106.5 104.79 109.24 106.2 110.92C106.71 111.53 107.34 111.8 107.71 111.93C106.81 107.38 106.31 106.44 106.03 106.46Z" fill="#F2B445"/>
<path d="M96.12 95.78C96.52 95.58 98.27 97.3 98.4 99.51C98.47 100.73 98.03 101.66 97.8 102.08C96.04 97.39 95.8 95.93 96.12 95.77V95.78Z" fill="#F2B445"/>
<path d="M76.36 86.02C75.74 86.03 75.34 89.62 75.18 91.23C74.88 90.71 75.69 92.54 76.27 92.66C76.55 92.72 77.01 92.55 77.78 91.4C77.56 89.83 76.99 86 76.35 86.02H76.36Z" fill="#F2B445"/>
<path d="M34.33 155.54C34.02 156.09 32.02 159.86 33.74 163.36C33.83 163.54 34.69 165.27 35.17 165.13C35.91 164.91 35.24 160.36 34.33 155.54Z" fill="#F2B445"/>
<path d="M69.66 159.24C70.06 159.04 71.81 160.76 71.94 162.97C72.01 164.19 71.57 165.12 71.34 165.54C69.58 160.85 69.34 159.39 69.66 159.23V159.24Z" fill="#F2B445"/>
<path d="M50.04 111.14C50.31 111.06 51.6 113.73 52.06 116.69C52.31 118.31 52.26 119.71 52.14 120.73C50.11 113.13 49.82 111.21 50.04 111.14Z" fill="#F2B445"/>
<path d="M18.86 109.67C19.26 109.47 21.01 111.19 21.14 113.4C21.21 114.62 20.77 115.55 20.54 115.97C18.78 111.28 18.54 109.82 18.86 109.66V109.67Z" fill="#F2B445"/>
<path d="M49.89 149.49C49.27 149.5 48.87 153.09 48.71 154.7C48.41 154.18 49.22 156.01 49.8 156.13C50.08 156.19 50.54 156.02 51.31 154.87C51.09 153.3 50.52 149.47 49.88 149.49H49.89Z" fill="#F2B445"/>
</g>
<defs>
<clipPath id="clip0_205_11">
<rect width="132.66" height="215.39" fill="white"/>
</clipPath>
</defs>
</svg>
