<svg width="418" height="366" viewBox="0 0 418 366" fill="none" xmlns="http://www.w3.org/2000/svg">
<g clip-path="url(#clip0_207_135)">
<path d="M309.98 0.520032C299.55 -0.439968 259.29 -2.90997 223.4 24.74C187.88 52.11 171.14 97.8 178.09 140.03C179.5 148.59 184.84 178.39 209.94 202.83C250.85 242.67 321.21 245.86 367.85 213.15C374.31 208.62 405.16 185.98 414.5 144.07C424.56 98.96 404.82 53.42 372.78 26.99C348.61 7.05003 322.39 2.05003 309.98 0.520032Z" fill="#5E67A2"/>
<path d="M102.61 12.21C94.59 11.47 63.6301 9.57003 36.03 30.84C8.71005 51.88 -4.15995 87.02 1.19005 119.49C2.27005 126.07 6.38005 148.99 25.68 167.79C57.14 198.43 111.25 200.88 147.11 175.72C152.08 172.24 175.8 154.82 182.99 122.59C190.73 87.9 175.55 52.88 150.91 32.55C132.32 17.22 112.16 13.37 102.61 12.2V12.21Z" fill="#545E95"/>
<path d="M239.55 108.21C228.13 107.16 184.04 104.46 144.73 134.74C105.83 164.71 87.49 214.76 95.11 261C96.65 270.37 102.5 303.01 129.99 329.78C174.79 373.41 251.85 376.9 302.92 341.08C309.99 336.12 343.78 311.32 354.01 265.42C365.03 216.02 343.41 166.15 308.32 137.19C281.85 115.35 253.13 109.88 239.54 108.2L239.55 108.21Z" fill="#6D78B8"/>
<path d="M286.42 50.31C288.95 48.64 292.32 48.77 294.78 50.65L316.82 68.15L342.39 62.26C344.59 61.6 346.92 62.52 348 64.39C348.93 66.01 348.78 68.1 347.61 69.66C343.74 77.01 339.87 84.35 336 91.7C338.11 98.13 340.22 104.56 342.34 110.99C343.8 113.95 343.1 117.45 340.77 119.4C338.88 120.98 336.16 121.34 333.76 120.35C326.79 116.52 319.82 112.69 312.84 108.85L291.31 111.73C287.59 112.12 283.87 112.51 280.15 112.89C279.65 112.81 276.99 112.31 275.45 109.92C273.92 107.54 274.12 104.26 276 101.73C279.89 97.13 283.78 92.53 287.66 87.94C286.22 77.81 284.78 67.68 283.34 57.55C282.86 54.72 284.07 51.87 286.42 50.32V50.31Z" fill="#49558D"/>
<path d="M258.59 195.19C263.79 187.23 268.98 179.26 274.18 171.3C274.25 171.16 275.73 168.39 278.81 168.19C281.08 168.04 283.26 169.34 284.28 171.47C287.64 179.71 291.01 187.96 294.37 196.2C302.42 197.69 310.46 199.17 318.51 200.66C318.66 200.75 321.14 202.37 321.12 205.37C321.1 208.13 318.98 209.68 318.76 209.83C313.73 215.38 308.71 220.93 303.68 226.48C303.63 234.72 303.58 242.97 303.53 251.21C303.52 251.39 303.23 254.69 300.5 256.09C298.11 257.31 294.9 256.54 293.01 254.07C285.91 247.12 278.8 240.16 271.7 233.21C263.44 238.14 255.18 243.08 246.91 248.01C244.75 249.78 241.68 249.78 239.68 248.09C237.93 246.62 237.28 244.13 238.08 241.87C241.02 233.6 243.97 225.33 246.91 217.06C241.3 212.43 235.7 207.81 230.09 203.18C228.62 201.66 228.16 199.42 228.91 197.46C229.64 195.55 231.41 194.21 233.45 194.01C241.82 194.4 250.2 194.8 258.57 195.19H258.59Z" fill="#575D95"/>
<path d="M80.36 33.95C80.53 33.57 81.81 30.86 84.82 30.08C87.46 29.4 90.36 30.49 92.11 32.85C96.52 38.38 100.93 43.9 105.35 49.43C112.92 49.73 120.49 50.03 128.06 50.34C130.66 50.38 133.02 51.74 134.12 53.9C135.55 56.7 134.64 60.44 131.76 62.56C128.79 65.81 125.82 69.06 122.84 72.32C124.27 78.96 125.7 85.61 127.13 92.25C128.03 95.19 126.78 98.3 124.28 99.68C122.17 100.84 119.48 100.6 117.46 99.06C111.74 95.86 106.02 92.67 100.3 89.47L75.79 107.39C75.34 107.52 73.47 108.03 71.54 107.05C68.76 105.64 68.44 102.46 68.43 102.26V81.82L52.62 70.63C50.55 69.23 49.74 66.64 50.6 64.49C51.32 62.7 53.11 61.47 55.14 61.38L68.09 58.69L80.37 33.96L80.36 33.95Z" fill="#3E488A"/>
</g>
<defs>
<clipPath id="clip0_207_135">
<rect width="417.14" height="365.48" fill="white"/>
</clipPath>
</defs>
</svg>
