<svg width="234" height="283" viewBox="0 0 234 283" fill="none" xmlns="http://www.w3.org/2000/svg">
<g filter="url(#filter0_f_328_5)">
<path d="M307.177 152.3C303.1 160.408 270.79 223.041 230.73 222.658C226.014 222.614 213.235 221.614 198.875 219.191C181.9 216.322 168.038 212.339 158.553 209.232C159.308 206.224 160.06 203.205 160.815 200.197C165.716 193.915 170.621 187.626 175.521 181.344C177.291 182.423 179.904 183.777 183.246 184.695C187.683 185.914 191.394 185.824 193.647 185.595C207.488 182.292 224.42 176.973 242.427 168.164C262.825 158.177 278.305 146.793 289.407 137.179C295.332 142.222 301.256 147.266 307.185 152.304L307.177 152.3Z" fill="#0C7634"/>
<path d="M175.514 181.34C199.646 154.616 223.771 127.889 247.9 101.172C261.737 113.172 275.563 125.175 289.4 137.175C277.836 147.185 266.62 154.712 257.083 160.297C242.94 168.577 231.254 173.296 224.557 175.972C220.219 177.704 216.341 178.973 208.581 181.517C196.896 185.345 193.252 186.044 188.871 185.661C183.079 185.159 178.4 182.976 175.514 181.34Z" fill="#E73A25"/>
<path d="M231.507 89.9575C226.664 85.8126 221.25 81.5 215.231 77.1523C207.363 71.4718 199.802 66.7059 192.839 62.7189C178.067 81.5359 163.152 101.922 148.417 123.926C138.77 138.329 129.818 152.515 121.51 166.387C125.28 169.512 131.716 174.119 140.685 177.374C151.683 181.371 161.056 181.359 166.082 181.009C177.139 166.935 188.277 152.157 199.422 136.669C210.823 120.815 221.506 105.219 231.507 89.9575Z" fill="#E73A25"/>
<path d="M152.066 206.319C145.47 205.765 137.612 204.643 128.857 202.454C118.755 199.927 110.162 196.658 103.343 193.573C105.826 190.067 108.304 186.483 110.778 182.821C114.527 177.283 118.107 171.794 121.521 166.384C136.375 171.259 151.239 176.131 166.092 181.006C162.098 186.84 158.099 192.663 154.104 198.497L152.066 206.319Z" fill="#0C7634"/>
<path d="M200.976 100.971C201.372 102.993 201.762 106.103 201.342 109.764C200.859 114.012 200.468 117.412 197.958 118.165C195.196 118.998 190.67 116.378 189.687 113.139C188.868 110.434 190.783 108.199 192.456 106.252C195.247 102.998 198.819 101.597 200.979 100.965L200.976 100.971Z" fill="black"/>
<path d="M185.293 103.416C184.304 104.853 183.267 105.994 182.324 106.893C181.147 107.597 179.54 107.454 178.379 106.546C177.169 105.602 176.701 104.046 177.268 102.775C177.539 101.981 178.232 100.359 179.982 99.1593C183.244 96.9176 187.354 98.0937 187.9 98.256C187.389 99.7173 186.587 101.524 185.297 103.41L185.293 103.416Z" fill="black"/>
<path d="M181.531 53.463C175.635 50.0726 169.238 46.6454 162.35 43.27C153.196 38.7889 144.48 35.0502 136.367 31.925C133.816 35.9393 131.257 39.9497 128.706 43.9641C121.636 40.1038 114.189 36.2065 106.374 32.3438C98.3721 28.3884 90.5924 24.7553 83.078 21.4176C66.8631 45.2212 50.7257 69.8397 34.7453 95.2829C28.4091 105.371 22.2028 115.429 16.1224 125.43C22.1119 129.972 28.7521 134.674 36.0697 139.383C42.4878 143.519 48.6888 147.184 54.5757 150.435C66.8685 135.638 79.1539 120.838 91.4467 106.041C84.6206 119.223 77.7871 132.401 70.9575 145.59C78.0298 149.393 86.6379 153.451 96.6593 157.068C106.269 160.537 115.057 162.837 122.603 164.394C142.243 127.415 161.891 90.4412 181.531 53.463Z" fill="#E73A22"/>
<path d="M105.569 194.699C98.71 193.776 88.2244 191.57 76.5845 185.796C67.6885 181.38 60.9884 176.3 56.401 172.278C61.2556 163.383 66.1102 154.488 70.9648 145.594C88.1752 151.859 105.393 158.128 122.607 164.387C116.926 174.488 111.253 184.592 105.573 194.693L105.569 194.699Z" fill="#0C7634"/>
<path d="M37.9919 174.03C39.7664 171.827 41.5325 169.554 43.2903 167.208C47.5269 161.556 51.3517 155.982 54.791 150.544C48.2435 146.715 41.4187 142.509 34.3993 137.878C27.9505 133.625 21.8968 129.393 16.2428 125.243C13.3169 129.163 10.2774 133.971 7.61773 139.716C6.32655 142.508 5.2731 145.212 4.40573 147.764C8.30435 151.993 13.2438 156.795 19.361 161.641C26.083 166.976 32.5104 171.008 37.9846 174.026L37.9919 174.03Z" fill="#0C7634"/>
<path d="M149.432 70.3364C152.41 66.9653 156.516 65.6948 159.029 65.1794C159.316 70.0985 158.092 73.4819 157.203 75.3256C155.995 77.8441 154.856 78.6864 153.815 79.1205C153.571 79.2227 150.661 80.3796 148.592 78.826C147.467 77.9879 147.145 76.771 147.056 76.395C146.401 73.7709 148.346 71.5687 149.432 70.3364Z" fill="black"/>
<path d="M138.354 76.9817C137.884 80.4222 136.187 82.9691 133.918 83.3146C132.704 83.4945 131.614 83.0449 131.614 83.0449C130.193 82.457 129.169 81.1026 128.906 79.9343C128.393 77.6566 130.687 75.7532 133.295 73.584C134.636 72.4737 136.482 71.1671 138.945 69.9946C138.748 72.3236 138.551 74.6527 138.354 76.9817Z" fill="black"/>
<path d="M89.8504 59.9867C88.944 62.5937 88.0373 65.1837 85.7279 65.5159C83.7872 65.7964 81.3399 64.4155 80.4479 62.6453C79.0632 59.9016 81.6714 56.7749 83.671 54.3674C85.0088 52.7594 87.265 50.5586 90.9001 48.7799C91.5393 53.9913 90.6249 57.7616 89.8504 59.9867Z" fill="black"/>
</g>
<defs>
<filter id="filter0_f_328_5" x="2.40573" y="19.4176" width="306.779" height="205.242" filterUnits="userSpaceOnUse" color-interpolation-filters="sRGB">
<feFlood flood-opacity="0" result="BackgroundImageFix"/>
<feBlend mode="normal" in="SourceGraphic" in2="BackgroundImageFix" result="shape"/>
<feGaussianBlur stdDeviation="1" result="effect1_foregroundBlur_328_5"/>
</filter>
</defs>
</svg>
