<svg width="234" height="349" viewBox="0 0 234 349" fill="none" xmlns="http://www.w3.org/2000/svg">
<g clip-path="url(#clip0_205_132)">
<path d="M136.506 0.388082C123.209 -0.639007 94.7504 -0.87354 67.5509 16.1664C59.1514 21.4313 38.7053 35.9642 20.8574 77.6624C-9.17425 147.836 -0.0727754 220.678 7.28587 257.791C8.06046 263.25 16.1372 314.354 62.1207 338.333C108.992 362.773 155.508 338.317 165.819 332.89C206.72 311.386 228.836 270.165 233.145 234.395C237.219 200.573 225.568 169.906 221.743 159.838C211.609 133.166 202.387 129.154 195.682 100.517C194.318 94.6781 191.51 81.0267 185.91 53.7158C182.384 36.5141 181.65 32.6646 178.85 27.5938C174.63 19.9513 164.383 7.14099 136.498 0.388082H136.506Z" fill="#CFA14A"/>
</g>
<defs>
<clipPath id="clip0_205_132">
<rect width="234" height="349" fill="white"/>
</clipPath>
</defs>
</svg>
