<svg width="292" height="172" viewBox="0 0 292 172" fill="none" xmlns="http://www.w3.org/2000/svg">
<g clip-path="url(#clip0_203_6)">
<path d="M50.0099 3.0169e-05C48.9062 0.18416 49.5271 10.6565 51.8838 31.4286C46.9288 32.3378 40.7552 34.0065 34.0872 37.1367C21.9584 42.8447 13.9798 50.7277 9.4617 56.0099C6.38063 61.062 0.666866 71.9256 0.0575504 86.7941C-0.114897 91.006 -0.195373 103.792 5.56438 115.449C17.1874 138.96 50.0329 150.871 77.866 146.107C100.779 142.183 130.52 125.185 133.498 98.6129C135.889 77.2424 119.782 60.3025 113.678 53.8924C93.4207 32.6025 67.2662 29.6909 59.529 29.1155C65.9326 13.3955 68.6458 5.30526 67.6571 4.82192C66.7833 4.39612 63.047 9.88548 56.4365 21.2785C53.0795 6.93941 50.9411 -0.149575 50.0099 3.0169e-05Z" fill="#D88A3E"/>
<path d="M93.846 86.3453C88.6036 84.8952 81.6712 83.8825 50.8145 90.189C28.9252 94.6656 25.2348 96.645 22.6711 100.546C17.4976 108.441 20.1993 119.258 20.8776 121.986C22.786 129.627 26.8903 134.783 29.2356 137.326C34.3745 140.353 51.8952 149.801 75.2791 146.556C100.077 143.115 114.816 127.694 118.632 123.436C119.104 120.467 120.92 107.129 112.298 96.7716C106.665 90.0048 99.3873 87.8873 93.823 86.3453H93.846Z" fill="#DEBA8A"/>
<path d="M197.706 26.4917C196.36 27.0326 197.763 34.4208 201.89 48.6563C196.257 48.9785 178.702 50.7047 163.86 64.5259C149.984 77.4495 141.557 97.347 145.488 115.829C146.73 121.641 149.512 131.089 156.318 140.802C165.826 154.358 177.529 160.895 183.001 163.254C191.072 166.741 204.983 171.54 222.837 171.77C241.91 172.023 256.74 166.959 264.995 163.45C269.386 160.526 282.285 151.147 288.586 133.252C294.012 117.854 291.609 104.54 290.321 99.1768C288.183 92.2719 282.515 77.2769 268.076 64.3303C250.141 48.2535 230.045 45.5261 223.147 44.9046C225.7 26.1004 226.366 16.5602 225.148 16.3185C223.849 16.0538 220.388 26.3996 214.766 47.3559C210.639 31.9005 208.282 24.2476 207.673 24.3857C207.075 24.5238 208.19 32.2572 211.03 47.586C203.546 32.9592 199.097 25.9163 197.683 26.4802L197.706 26.4917Z" fill="#DE8F44"/>
<path d="M254.809 145.209C260.684 149.939 263.155 155.808 263.155 155.808C264.431 158.846 264.857 161.597 265.006 163.461C253.993 168.306 244.221 170.297 237.346 171.183C217.721 173.715 202.615 169.71 195.97 167.869C187.715 165.59 182.887 163.173 181.105 162.241C173.402 158.213 167.907 153.426 164.435 149.927C181.725 140.986 197.016 138.04 206.799 136.946C229.896 134.369 247.497 139.34 254.809 145.221V145.209Z" fill="#DEBA8A"/>
</g>
<defs>
<clipPath id="clip0_203_6">
<rect width="292" height="172" fill="white"/>
</clipPath>
</defs>
</svg>
