<svg width="101" height="113" viewBox="0 0 101 113" fill="none" xmlns="http://www.w3.org/2000/svg">
<g filter="url(#filter0_f_208_149)">
<path d="M52.438 31.5665C52.4628 30.8297 52.4308 29.9298 52.2551 28.9226C52.0247 27.5906 51.6229 26.5012 51.2555 25.6998C50.1144 24.7362 46.7187 22.1137 41.6389 21.7865C37.7338 21.5331 34.741 22.7621 33.3536 23.4428C31.8232 24.521 29.6848 26.2171 27.5415 28.6649C25.2412 31.2919 23.5615 34.0722 22.0021 37.4911C19.2354 43.5551 15.139 55.4277 11.0686 71.0891C10.8195 72.043 9.42176 77.8351 13.0036 83.3417C15.9066 87.8041 20.2523 89.2579 21.4748 89.626C21.7444 90.4724 22.779 93.3758 25.8185 95.3759C28.6286 97.2217 31.441 97.1752 32.3692 97.119C33.6322 98.2012 36.8552 100.664 41.6318 101.192C44.6155 101.521 47.056 100.975 48.5338 100.512C54.1219 97.9104 64.582 92.1341 73.6329 80.691C83.1799 68.6139 86.2814 56.3963 87.4082 50.2889C87.4398 49.729 87.5079 47.3747 85.7964 45.3108C83.6559 42.7305 80.5128 42.7312 80.0955 42.7412C79.0297 42.6441 77.2589 42.6242 75.2511 43.3198C73.8371 43.8087 72.6114 44.638 72.5485 44.6782C72.4576 44.7428 72.384 44.7941 72.3277 44.832C71.1747 43.9603 69.4921 42.8816 67.2859 42.0328C65.0204 41.1607 62.9962 40.834 61.5301 40.7116C60.4351 39.1355 58.9894 37.3194 57.117 35.4762C55.4728 33.8573 53.8573 32.5722 52.4315 31.5687L52.438 31.5665Z" fill="#F2B445"/>
<path d="M61.5365 40.7094C60.4388 40.038 59.2404 39.204 58.0195 38.1584C55.3697 35.8909 53.5987 33.4782 52.438 31.5665C54.0098 31.1105 56.0734 30.3332 58.2599 28.9643C59.8635 27.9594 61.1318 26.8847 62.0893 25.9475C62.8812 25.0387 63.729 23.9129 64.5191 22.5584C66.2058 19.6512 66.9152 16.8905 67.2357 14.9239C68.2042 14.7841 69.5673 14.7265 71.0878 15.1409C75.3573 16.3028 77.3014 20.1773 77.6637 20.9328C77.3779 24.94 76.7539 29.6137 75.502 34.733C74.577 38.5018 73.4693 41.8731 72.3319 44.8232C71.3217 44.1615 70.1342 43.4848 68.7748 42.8606C66.0495 41.6145 63.5297 41.0103 61.5387 40.705L61.5365 40.7094Z" fill="#5E7F38"/>
<path d="M44.1914 37.9292C40.6639 41.1189 35.1247 46.9558 31.1534 55.8505C28.0661 62.7579 27.042 69.0125 26.6878 73.285" stroke="#5E7F38" stroke-linecap="round" stroke-linejoin="round"/>
<path d="M66.1867 56.1617C65.5616 60.2871 63.6454 69.0623 56.7977 77.4844C51.6092 83.865 45.7755 87.3567 42.2239 89.1242" stroke="#5E7F38" stroke-linecap="round" stroke-linejoin="round"/>
</g>
<defs>
<filter id="filter0_f_208_149" x="8.59216" y="12.8201" width="80.8265" height="90.4725" filterUnits="userSpaceOnUse" color-interpolation-filters="sRGB">
<feFlood flood-opacity="0" result="BackgroundImageFix"/>
<feBlend mode="normal" in="SourceGraphic" in2="BackgroundImageFix" result="shape"/>
<feGaussianBlur stdDeviation="1" result="effect1_foregroundBlur_208_149"/>
</filter>
</defs>
</svg>
