<svg width="98" height="106" viewBox="0 0 98 106" fill="none" xmlns="http://www.w3.org/2000/svg">
<g filter="url(#filter0_f_208_181)">
<path d="M52.0189 43.7865C53.5597 39.116 55.8672 33.8451 59.3946 28.5044C60.1929 27.299 61.0018 26.1602 61.8175 25.0868C62.2999 24.5283 62.7878 23.967 63.2702 23.4085C65.0006 21.7674 66.7027 20.1446 69.5624 18.8666C70.7033 18.3562 74.3143 16.9746 78.5906 17.2346C84.6494 17.6057 91.9471 22.6053 93.1474 30.3139C94.3142 37.8265 88.9197 43.355 88.2763 43.9942C87.7769 44.5203 87.1475 45.1005 86.3776 45.6819C85.6319 46.2438 84.918 46.6755 84.2908 47.0033C84.0958 47.0055 83.797 47.0068 83.4324 46.9874C81.2573 46.8888 79.6639 46.3623 79.0505 46.17C78.5278 46.0062 76.7883 45.7005 73.3076 45.0797C66.9953 43.9601 62.7722 43.1699 58.252 44.6688C56.6774 45.1924 55.486 45.8497 54.7978 46.2713C53.7903 45.9375 52.7775 45.6065 51.7701 45.2726C51.8539 44.7745 51.9336 44.2751 52.0174 43.777L52.0189 43.7865Z" fill="#5E7F38"/>
<path d="M49.4462 44.5669C48.491 43.1147 46.9963 41.1048 44.8337 39.0481C43.8232 38.0895 40.0085 34.5974 33.5227 31.9542C27.2046 29.3818 25.5035 30.5257 23.2455 28.0233C20.2831 24.7396 20.6102 19.874 20.7042 18.5067C20.9766 14.4648 22.7641 11.6753 23.2026 11.0262C26.3099 6.37659 31.8155 3.98401 36.9812 4.08876C37.9652 4.10787 43.0877 4.30755 47.3348 8.09338C49.9097 10.3922 51.0346 13.0051 51.8164 14.8233C53.0737 17.7489 53.5416 20.4677 53.7612 23.3438C54.4325 32.1342 52.6892 41.1577 51.7716 45.2822C50.9965 45.0437 50.2214 44.8053 49.4462 44.5669Z" fill="#5E7F38"/>
<path d="M39.3419 95.4383C39.4407 95.4693 39.5534 95.4413 39.6255 95.3554C40.0266 94.8257 40.5478 94.1437 41.1555 93.3442C44.2451 89.2993 44.6374 88.8843 45.3643 88.642C46.7571 88.1789 47.3024 89.0641 50.1189 89.3231C52.0047 89.4937 53.5913 89.2632 54.6731 89.0282C56.7504 88.4723 59.1631 87.6689 61.7585 86.4843C64.7029 85.1379 67.1331 83.6439 69.0568 82.2804C70.7981 80.2585 75.095 74.698 75.2983 66.8959C75.3406 65.3044 75.3879 61.9514 73.7029 58.0826C71.8116 53.7468 68.8053 51.2088 67.2845 50.0902C64.523 48.646 60.4156 46.78 55.1719 45.3805C51.5966 44.4272 48.6766 43.6475 44.9205 43.7903C42.3492 43.8884 37.259 44.4945 31.4458 48.2869C30.1957 49.7802 28.8189 51.6631 27.5396 53.9564C26.6435 55.5606 25.9533 57.0847 25.4174 58.4627C24.7623 60.5674 23.4648 65.7887 25.3842 71.8376C26.4849 75.3063 28.2434 77.8013 29.53 79.3212C30.2306 80.7206 31.4487 82.6032 33.56 83.9295C36.1059 85.5276 37.9089 85.0395 38.8722 86.7111C39.2032 87.285 39.1969 87.6944 39.1868 92.3564C39.1853 93.1832 39.1806 94.5107 39.1817 95.257C39.1833 95.2665 39.2184 95.3996 39.346 95.4396L39.3419 95.4383Z" fill="#EA8C97"/>
<path d="M37.9823 13.76C40.3219 15.5692 44.8498 19.5696 47.8947 26.2968C50.8458 32.8182 50.9404 38.6748 50.7915 41.6162" stroke="#2D3823" stroke-linecap="round" stroke-linejoin="round"/>
<path d="M29.224 16.8238C31.6244 18.0643 35.1013 20.2255 38.4376 23.8163C41.2466 26.8395 43.0009 29.853 44.0779 32.0847" stroke="#2D3823" stroke-linecap="round" stroke-linejoin="round"/>
<path d="M45.0682 27.4541C46.119 28.8323 47.4654 30.9404 48.3649 33.7674C48.9203 35.5146 49.1698 37.0982 49.2722 38.387" stroke="#2D3823" stroke-linecap="round" stroke-linejoin="round"/>
<path d="M78.5351 32.6277C75.1802 32.7741 68.8922 33.5381 62.4988 37.5375C59.2826 39.5491 56.9304 41.818 55.2971 43.6974" stroke="#2D3823" stroke-linecap="round" stroke-linejoin="round"/>
<path d="M75.9512 26.9537C74.0621 27.2838 71.0406 28.0681 67.8684 30.098C65.4245 31.6646 63.7331 33.4264 62.6574 34.7528" stroke="#2D3823" stroke-linecap="round" stroke-linejoin="round"/>
<path d="M31.2829 81.8054C31.9935 82.5525 32.6832 83.1212 33.2721 83.5499C34.6765 84.5642 35.9493 85.0898 38.3406 86.0563C39.348 86.4624 40.2064 86.7812 40.8367 87.0059" stroke="#AB4F5C" stroke-linecap="round" stroke-linejoin="round"/>
<path d="M53.151 89.2834C52.1244 89.4002 50.8539 89.4585 49.4107 89.3181C47.4441 89.1311 45.8295 88.6431 44.6521 88.1882" stroke="#AB4F5C" stroke-linecap="round" stroke-linejoin="round"/>
<path d="M39.1783 93.7823C39.2882 94.3547 39.2946 94.7816 39.274 95.078C39.268 95.1982 39.2498 95.4004 39.3365 95.4411C39.419 95.4806 39.563 95.3675 39.7368 95.1733C40.2105 94.6573 40.8336 93.6501 41.2374 92.9675" stroke="#AB4F5C" stroke-linecap="round" stroke-linejoin="round"/>
</g>
<defs>
<filter id="filter0_f_208_181" x="18.6449" y="2.08546" width="76.6671" height="95.8635" filterUnits="userSpaceOnUse" color-interpolation-filters="sRGB">
<feFlood flood-opacity="0" result="BackgroundImageFix"/>
<feBlend mode="normal" in="SourceGraphic" in2="BackgroundImageFix" result="shape"/>
<feGaussianBlur stdDeviation="1" result="effect1_foregroundBlur_208_181"/>
</filter>
</defs>
</svg>
