<svg width="473" height="492" viewBox="0 0 473 492" fill="none" xmlns="http://www.w3.org/2000/svg">
<g filter="url(#filter0_f_208_142)">
<path d="M114.639 79.8012C109.911 85.4188 105.175 91.0432 100.454 96.6691C102.333 100.956 104.741 105.72 107.824 110.728C111.414 116.564 115.131 121.46 118.546 125.457C120.88 131.942 123.119 139.202 125.016 147.189C128 159.843 129.434 171.419 130.024 181.379C129.365 181.359 127.78 181.214 126.28 180.093C123.835 178.278 123.644 175.376 123.618 174.951C122.8 176.121 121.202 178.765 120.86 182.52C120.497 186.488 121.734 189.527 122.35 190.811C121.226 189.076 119.654 186.995 117.515 184.888C115.061 182.479 112.624 180.811 110.672 179.668C109.454 178.945 105.672 176.895 100.553 177.415C95.1869 177.956 91.792 180.964 90.7878 181.923C94.6114 183.409 101.636 186.764 107.616 193.902C111.017 197.967 113.037 201.999 114.243 205.05C117.024 204.232 120.444 202.948 124.105 200.882C126.951 199.271 129.299 197.564 131.164 196C133.281 196.421 136.44 196.802 140.219 196.301C143.352 195.88 145.886 194.998 147.681 194.203C149.927 193.5 152.173 192.813 154.419 192.11C155.743 190.345 157.683 187.282 158.765 183.048C160.093 177.833 159.453 173.456 158.939 171.167C158.317 173.056 156.605 177.441 152.236 181.104C148.423 184.301 144.472 185.362 142.519 185.741C139.69 170.949 136.852 156.165 134.015 141.365C161.441 164.071 188.867 186.777 216.284 209.49C213.289 232.678 210.295 255.866 207.3 279.055C205.902 278.214 203.97 277.25 201.555 276.583C197.988 275.599 194.905 275.672 192.916 275.886C197.417 276.833 200.742 280.205 201.219 284.143C201.652 287.685 199.626 290.385 199.107 291.032C198.214 291.273 196.759 291.525 195.028 291.235C191.771 290.682 189.808 288.585 189.188 287.877C190.07 289.865 191.456 292.419 193.652 295.024C195.079 296.721 196.537 298.044 197.817 299.065C198.237 298.331 198.923 297.325 199.99 296.356C200.914 295.504 201.839 294.945 202.537 294.585C203.167 293.526 204.493 291.662 206.855 290.279C208.113 289.545 209.314 289.151 210.227 288.936C211.145 287.238 213.077 284.251 216.627 281.912C218.571 280.633 220.434 279.922 221.874 279.514C221.079 279.172 219.544 278.387 218.281 276.737C216.488 274.403 216.405 271.889 216.404 271.066C219.121 255.545 221.832 240.014 224.55 224.493C234.978 233.78 249.632 249.083 261.688 271.449C271.627 289.888 276.458 306.927 278.95 319.355C274.711 329.334 270.501 339.555 266.337 350.003C262.676 359.203 259.158 368.286 255.789 377.262C254.541 376.145 252.877 374.362 251.521 371.811C249.327 367.669 249.176 363.772 249.237 361.81C248.344 364.018 247.245 367.428 247.002 371.731C246.756 376.049 247.468 379.572 248.112 381.867C246.491 381.026 244.596 379.851 242.662 378.218C238.968 375.077 236.789 371.62 235.556 369.22C234.783 370.257 232.626 373.413 232.669 377.914C232.735 383.947 236.727 387.71 237.431 388.35C238.661 389.413 240.101 390.527 241.757 391.632C243.78 392.982 245.718 394.039 247.449 394.86C244.082 395.165 239.994 395.835 235.487 397.224C232.265 398.221 229.464 399.39 227.102 400.55C229.125 400.463 232.023 400.61 235.207 401.808C236.273 402.208 237.21 402.672 238.031 403.147C239.081 402.346 240.625 401.365 242.654 400.616C244.234 400.038 245.669 399.761 246.796 399.636C248.755 399.043 251.009 398.195 253.395 396.945C257.745 394.679 260.911 391.955 263.047 389.765C264.591 380.213 267.524 367.88 273.332 354.331C278.599 342.019 284.754 332.179 290.112 324.819C294.19 329.713 298.26 334.614 302.331 339.499C301.122 338.685 298.872 337.451 296.062 337.566C291.059 337.783 287.855 342.171 285.956 344.754C283.011 348.776 282.114 352.775 281.389 355.991C280.56 359.697 280.401 362.856 280.414 365.009C280.446 364.159 280.709 358.375 285.368 354.879C289.519 351.771 294.43 352.537 296.572 352.869C298.925 353.237 300.776 354.016 302.018 354.649C302.267 354.013 303.242 351.752 305.778 350.394C307.818 349.302 309.752 349.413 310.497 349.488C310.649 348.75 311.271 346.176 313.686 344.191C316.21 342.118 318.981 342.075 319.718 342.088C320.304 341.01 321.61 338.966 324.079 337.356C326.047 336.071 327.924 335.6 329.059 335.4C327.956 333.159 326.555 329.612 326.16 325.09C325.561 318.181 327.637 312.787 328.833 310.233C325.403 313.437 321.501 317.655 317.776 323.013C315.32 326.538 313.385 329.933 311.859 333.007C306.311 326.842 299.559 318.142 293.567 306.728C287.569 295.29 284.238 284.761 282.319 276.695C288.982 279.283 296.021 281.817 303.406 284.262C312.057 287.113 320.409 289.58 328.381 291.7C326.484 293.207 323.698 295.062 320.016 296.42C313.502 298.805 307.732 298.321 304.736 297.849C306.855 299.539 311.769 303.011 319.034 304.145C326.314 305.281 332.056 303.456 334.591 302.49C334.768 301.201 335.36 298.164 337.778 295.31C339.707 293.038 341.901 291.945 343.089 291.451C344.079 289.721 345.631 287.449 347.986 285.22C349.781 283.518 351.556 282.306 353.017 281.462C353.117 280.558 353.409 278.965 354.411 277.268C355.358 275.657 356.528 274.661 357.25 274.127C357.009 272.411 356.463 269.912 355.109 267.192C354.814 266.609 352.009 261.136 346.178 257.687C336.395 251.893 325.45 256.136 324.104 256.677C325.371 256.689 330.765 256.866 335.225 261.099C338.718 264.404 339.689 268.33 339.971 269.789C336.769 269.526 332.763 268.929 328.296 267.578C323.604 266.158 319.786 264.319 316.893 262.673C320.041 265.897 323.738 269.315 328.028 272.724C330.803 274.926 333.504 276.868 336.106 278.584C328.372 277.901 318.712 276.363 307.958 273.023C297.539 269.786 288.949 265.728 282.306 262.019C280.241 260.857 277.897 259.337 275.465 257.384C272.764 255.22 270.61 253.027 268.923 251.096L258.242 235.272C247.573 218.419 237.028 205.876 228.929 197.201C217.092 184.512 205.149 174.395 195.594 166.28C190.094 161.611 185.41 157.84 182.101 155.222C186.945 154.828 192.137 154.192 197.623 153.233C207.1 151.57 215.529 149.256 222.782 146.784C222.943 145.578 223.423 143.19 225.138 140.757C226.727 138.497 228.634 137.275 229.693 136.69C230.565 135.141 231.933 133.089 234.015 131.055C235.909 129.202 237.789 127.947 239.264 127.12C239.717 125.451 240.479 123.322 241.817 121.044C242.707 119.535 243.663 118.294 244.524 117.313C244.403 116.309 244.137 114.906 243.505 113.328C239.997 104.633 229.642 102.056 228.127 101.687C222.855 100.378 218.235 101.063 215.315 101.814C216.857 101.839 221.666 102.102 225.978 105.675C228.879 108.067 230.248 110.872 230.857 112.371C232.053 117.105 233.265 121.839 234.461 126.572C232.167 124.941 228.818 122.942 224.437 121.492C221.031 120.364 217.974 119.885 215.564 119.688C216.575 120.566 217.95 121.943 219.14 123.931C220.18 125.651 220.748 127.253 221.072 128.454C217.241 128.328 211.671 127.696 205.41 125.379C198.164 122.694 193.015 118.883 189.922 116.187C193.913 121.557 198.729 127.286 204.51 133.052C207.142 135.678 209.756 138.095 212.315 140.306C207.368 141.412 201.784 142.354 195.627 142.884C185.071 143.808 175.753 143.288 168.135 142.302C160.013 136.507 153.481 130.797 148.459 125.961C136.791 114.726 129.566 104.625 127.171 101.178C121.629 93.2069 117.587 85.8262 114.654 79.8027L114.639 79.8012Z" fill="#0C7634"/>
<path d="M113.864 204.089C110.021 206.429 99.6717 213.439 95.442 226.509C88.8721 246.822 102.627 264.702 106.112 269.228C109.087 273.096 118.467 284.914 135.662 289.028C151.977 292.938 165.581 287.572 172.24 284.064C176.088 282.04 186.871 275.766 194.198 262.625C204.869 243.487 199.924 224.616 198.637 220.012C196.693 213.028 193.878 203.027 184.136 195.915C172.569 187.473 159.393 189.069 156.06 189.57C155.504 190.429 154.95 191.272 154.394 192.13C152.996 192.573 150.941 193.203 148.434 193.98C142.627 195.76 141.861 195.952 141.14 196.094C138.919 196.538 135.542 196.865 131.111 195.987C128.593 198.084 125.199 200.477 120.887 202.517C118.506 203.636 116.247 204.461 114.218 205.07C114.096 204.751 113.975 204.431 113.862 204.104L113.864 204.089Z" fill="#E73B1E"/>
<path d="M255.484 106.336C251.541 108.228 241.394 113.09 238.95 122.72C238.625 124.033 238.496 125.157 238.454 125.945C236.806 127.192 235.159 128.425 233.511 129.673C232.67 130.456 231.725 131.437 230.793 132.672C230.002 133.722 229.377 134.735 228.903 135.625C227.844 136.21 226.149 137.314 224.654 139.246C222.68 141.806 222.116 144.417 221.933 145.697C220.764 147.67 219.343 150.547 218.402 154.218C217.451 157.912 217.31 161.126 217.385 163.424C217.846 166.915 220.561 184.508 235.599 194.277C244.889 200.305 254.306 200.381 259.12 200.361C283.346 200.244 315.278 183.018 319.359 154.644C321.076 142.703 317.956 128.12 307.869 117.061C297.802 106.027 283.763 101.724 272.093 102.189C269.553 102.294 262.908 102.79 255.508 106.331L255.484 106.336Z" fill="#E73B1E"/>
<path d="M197.744 299.027C194.26 300.866 188.062 304.836 184.585 312.14C177.786 326.442 186.593 342.706 193.802 350.769C205.083 363.394 223.438 368.194 238.943 363.482C249.588 360.239 255.897 353.428 258.773 350.229C270.039 337.74 274.593 319.798 270.752 303.459C269.429 297.853 265.455 280.701 251.984 275.572C243.68 272.41 235.233 275.131 221.749 279.463C219.858 280.071 217.3 281.042 214.746 283.182C212.31 285.227 210.904 287.49 210.156 288.883C209.443 289.018 208.494 289.276 207.46 289.771C206.329 290.318 205.485 290.978 204.911 291.489C204.429 291.924 203.895 292.485 203.37 293.193C203.013 293.68 202.72 294.142 202.485 294.572C202.088 294.77 201.673 294.997 201.26 295.278C199.504 296.446 198.404 297.903 197.737 299.019L197.744 299.027Z" fill="#F28926"/>
<path d="M237.99 403.097C234.415 404.995 228.426 408.878 224.683 415.925C216.853 430.623 224.532 448.226 231.958 457.563C241.955 470.12 261.185 479.859 279.136 473.542C297.742 466.984 303.537 447.192 305.639 440.017C307.356 434.149 313.425 413.393 301.216 398.537C299.5 396.434 290.955 386.615 277.457 386.31C270.938 386.159 265.81 388.292 262.988 389.744C262.312 390.421 261.453 391.233 260.419 392.105C260.419 392.105 258.571 393.655 256.579 394.961C252.455 397.657 247.617 399.274 246.29 399.701C245.765 399.724 245.191 399.774 244.564 399.895C242.927 400.198 241.635 400.806 240.72 401.343C239.806 401.935 238.893 402.527 237.98 403.119L237.99 403.097Z" fill="#F28926"/>
<path d="M301.917 354.593C299.726 357.93 295.982 364.685 295.844 373.634C295.627 387.994 304.788 401.597 317.884 407.549C335.647 415.61 352.329 405.805 354.262 404.632C376.148 391.265 374.394 361.762 374.228 359.454C373.968 356.023 373.38 353.18 372.869 351.169C377.08 351.487 383.573 351.436 390.809 348.978C413.738 341.181 420.851 317.172 421.181 315.968C421.954 313.186 427.285 292.74 414.565 275.342C412.141 272.03 403.417 260.109 389.457 258.966C389.457 258.966 378.333 258.064 357.184 274.097C355.927 275.054 355.172 275.977 354.691 276.704C353.495 278.49 353.128 280.297 352.98 281.451C351.477 282.329 349.611 283.601 347.73 285.401C345.49 287.55 343.994 289.72 343.017 291.397C342.023 291.804 340.601 292.49 339.192 293.724C337.413 295.273 335.867 297.485 334.449 302.522C332.872 308.151 331.311 313.697 333.166 320.656C333.76 322.907 335.096 326.717 338.286 330.744C337.349 330.657 335.545 330.636 333.531 331.47C330.842 332.59 329.421 334.56 328.91 335.354C327.798 335.549 325.695 336.051 323.553 337.618C321.354 339.217 320.207 341.13 319.69 342.139C318.977 342.121 316.009 342.128 313.407 344.363C311.142 346.309 310.541 348.755 310.385 349.538C309.581 349.426 308.113 349.354 306.48 349.989C303.375 351.197 302.158 354.033 301.915 354.608L301.917 354.593Z" fill="#F2B445"/>
</g>
<defs>
<filter id="filter0_f_208_142" x="88.7877" y="77.8012" width="336.157" height="399.72" filterUnits="userSpaceOnUse" color-interpolation-filters="sRGB">
<feFlood flood-opacity="0" result="BackgroundImageFix"/>
<feBlend mode="normal" in="SourceGraphic" in2="BackgroundImageFix" result="shape"/>
<feGaussianBlur stdDeviation="1" result="effect1_foregroundBlur_208_142"/>
</filter>
</defs>
</svg>
